<svg xmlns="http://www.w3.org/2000/svg" width="200" height="200" viewBox="0 0 103.86 123">
    <defs>
        <style>.cls-1{fill:red;}.cls-2{stroke:#000;stroke-miterlimit:10;}.cls-3{fill:url(#linear-gradient);}</style>
        <linearGradient id="linear-gradient" x1="12.71" y1="84.53" x2="115.26" y2="84.53"
                        gradientUnits="userSpaceOnUse">
            <stop offset="0.05" stop-color="#22205f"/>
            <stop offset="0.12" stop-color="#191761"/>
            <stop offset="0.22" stop-color="#020267"/>
            <stop offset="0.43" stop-color="#171767"/>
            <stop offset="0.71" stop-color="#2b2b66"/>
            <stop offset="0.89" stop-color="#336"/>
            <stop offset="0.99" stop-color="#020267"/>
        </linearGradient>
    </defs>
    <circle cx="51.93" cy="61.5" r="61.5" fill="white"/>
    <g id="A_-Centered">
        <path class="cls-1"
              d="M73.83,72.19a13.77,13.77,0,0,0-2.61.24,14.14,14.14,0,0,1-2.55.23h-.32l-.58-.58a5.52,5.52,0,0,1-.58-.63,2.57,2.57,0,0,1,1.22-1.63,4,4,0,0,1,1.76-.37c.65,0,1.3,0,2,.08a3.79,3.79,0,0,0,1.79-.26,2.77,2.77,0,0,0,1.34-1.43,8.34,8.34,0,0,0,.53-3.45c0-.07,0-.22,0-.44s0-.38,0-.45a12.1,12.1,0,0,0-2.43.55c-.77.26-1.55.55-2.34.84s-1.57.57-2.34.79a8.34,8.34,0,0,1-2.37.35h-.37a2.39,2.39,0,0,1-.53-.06.86.86,0,0,1-.45-.21.52.52,0,0,1-.18-.42,1.36,1.36,0,0,1,.08-.42c0-.17.11-.35.18-.53l.21-.52a1.09,1.09,0,0,1,.21-.37l1.69-.37,2.55-.55c.9-.2,1.75-.37,2.56-.53s1.38-.29,1.74-.4l.37-.13.55-.18.52-.19a2.05,2.05,0,0,0,.35-.13,4.65,4.65,0,0,0,.39-.31c.16-.14.24-.25.24-.32l1.21-9.74s.07-.09.21-.16c.32,0,.55.19.71.58a2.57,2.57,0,0,1,.24.79v8.48c.39,0,.94,0,1.66-.11L82.71,60c.82-.09,1.67-.21,2.55-.35l2.37-.39c.7-.12,1.29-.25,1.77-.37s.71-.24.71-.34V49.86l.31,0a6.13,6.13,0,0,1,.74.05,2.29,2.29,0,0,1,.71.24.52.52,0,0,1,.34.45v7.9c.32,0,.89,0,1.72-.08s1.68-.12,2.58-.19l2.55-.18c.81-.05,1.37-.08,1.69-.08h.73a3.17,3.17,0,0,1,1.32.29,2.58,2.58,0,0,1,1.06.92,5.75,5.75,0,0,1-1.66,1.42,4.44,4.44,0,0,1-2.09.43,3.25,3.25,0,0,1-.92-.11c-.23-.07-.44-.15-.66-.24s-.43-.16-.68-.23a3.79,3.79,0,0,0-1-.11l-1,0c-.51,0-1,0-1.58.08a6.88,6.88,0,0,0-1.42.21c-.4.1-.61.21-.61.31v5c.18,0,.54,0,1.08-.08l1.87-.19c.71-.07,1.43-.11,2.16-.13s1.42,0,2,0a4.78,4.78,0,0,1,1.53.29q.6.24.6.66a1.42,1.42,0,0,1-.15.58.64.64,0,0,1-.53.36q-.27.06-1.53.21c-.84.11-1.77.21-2.79.29l-2.79.27a7.81,7.81,0,0,1-1.48.08c0,.35-.07,1-.13,1.92s-.11,1.91-.18,3-.13,2-.19,2.92-.09,1.57-.13,2,0,.63,0,1.06a5.36,5.36,0,0,1-.08,1.21,1.81,1.81,0,0,1-.5,1,1.71,1.71,0,0,1-1.24.4,3.24,3.24,0,0,1-1-1.35,3.54,3.54,0,0,1-.24-1.58,5,5,0,0,1,.37-1.6,7.18,7.18,0,0,1,.84-1.53c0-.28,0-.77,0-1.48s0-1.43-.07-2.18-.07-1.48-.08-2.16,0-1.17,0-1.45a.54.54,0,0,1-.21,0,.2.2,0,0,0-.21,0c-.49.07-1.24.19-2.24.37l-3.06.55L81,69.87l-1.61.32a3.9,3.9,0,0,0-2.66,1.74,8.53,8.53,0,0,0-1.18,3.13,20.37,20.37,0,0,0-.32,3.58c0,1.21,0,2.26-.1,3.14a3.57,3.57,0,0,1-1,.58,3.22,3.22,0,0,1-1,.15,38.43,38.43,0,0,1,.34-5.21A37.81,37.81,0,0,0,73.83,72.19Zm4.9-9.38a1.68,1.68,0,0,0-.79,1,8.62,8.62,0,0,0-.4,1.61,12.54,12.54,0,0,0-.13,1.71v1.32a10.33,10.33,0,0,0,1.35-.18l2.39-.43c.91-.15,1.88-.33,2.9-.52s2-.38,2.82-.56,1.56-.34,2.1-.5.82-.27.82-.34V61.44a38.14,38.14,0,0,0-5.61.43Q81.26,62.29,78.73,62.81Z"/>
        <path id="A_end" class="cls-2"
              d="M48.11,46s3.71,12.49,6.46,18.8,8.23,21,12.49,29.11a51.4,51.4,0,0,0,3.84,6.59,1.18,1.18,0,0,0,1.92,0,44.89,44.89,0,0,1,4.81-4.12c1.3-1,2.63-1.85,3.57-2.47.41-.28,1-.55,1.1-1a1.1,1.1,0,0,0-.69-1.24c-.39-.13-1.34.63-1.92.82a4.39,4.39,0,0,1-4.12-.82,22.38,22.38,0,0,1-5.22-6.86C65.6,75.44,59.42,59.48,58,55.6,55.94,50,51.82,36.93,51.82,36.93Z"/>
        <polygon id="A-left"
                 points="15.99 123 56.49 13.32 54.57 8.24 15.99 123 53.74 6.18 51.27 0 15.99 123 59.1 19.77 57.31 15.1 15.99 123"/>
        <path id="CURVE" class="cls-3"
              d="M0,84.78a55.08,55.08,0,0,0,5.7.57A40.48,40.48,0,0,0,17,84.51c1.92-.48,3.8-.88,5.79-1.35s4.08-1,6.43-1.81c3.94-1.32,7.89-2.87,10.85-4.08S45,75.17,45,75.17c-1.16,1.09-2.13,1.92-1.93,4.12a4.22,4.22,0,0,0,2.06,3c2.11,1.41,6.47,1.37,10,.41a20.72,20.72,0,0,0,4.39-1.78s7.14-3.67,9.25-4.57a29.25,29.25,0,0,1,7.5-2.16,40.68,40.68,0,0,1,11.77.16,28.17,28.17,0,0,1,14.45,6.84,32,32,0,0,0-5.15-2.69,23.27,23.27,0,0,0-11.33-2,79.27,79.27,0,0,0-8.44,1.2,32.8,32.8,0,0,0-6.8,2.64,52.11,52.11,0,0,0-7.37,4.34c-2,1.36-3.47,2.52-4.71,3.21s-2.33,1.32-3.5,1.85a18.82,18.82,0,0,1-4,1.26,12.41,12.41,0,0,1-3.5,0c-10-1.45-9.47-7.55-9.47-8a67.77,67.77,0,0,1-6.58,2.52c-2.27.72-5.19,1.58-8.52,2.42a38.9,38.9,0,0,1-10.56.81A30.31,30.31,0,0,1,5.08,87.8,20.31,20.31,0,0,1,1.78,86C.76,85.34,0,84.78,0,84.78Z"/>
    </g>
</svg>
