<svg xmlns="http://www.w3.org/2000/svg" viewBox="0 0 128 128">
    <defs>
        <style>.cls-1{fill:red;}.cls-2{stroke:#000;stroke-miterlimit:10;}.cls-3{fill:url(#linear-gradient);}</style>
        <linearGradient id="linear-gradient" x1="12.71" y1="84.53" x2="115.26" y2="84.53"
                        gradientUnits="userSpaceOnUse">
            <stop offset="0.05" stop-color="#22205f"/>
            <stop offset="0.12" stop-color="#191761"/>
            <stop offset="0.22" stop-color="#020267"/>
            <stop offset="0.43" stop-color="#171767"/>
            <stop offset="0.71" stop-color="#2b2b66"/>
            <stop offset="0.89" stop-color="#336"/>
            <stop offset="0.99" stop-color="#020267"/>
        </linearGradient>
    </defs>
    <g id="A_-Centered">
        <path class="cls-1"
              d="M86.54,74.19a13.58,13.58,0,0,0-2.6.24,14.34,14.34,0,0,1-2.56.23h-.31c-.07-.07-.27-.26-.58-.58a4.67,4.67,0,0,1-.58-.63,2.56,2.56,0,0,1,1.21-1.63,4.05,4.05,0,0,1,1.76-.37c.65,0,1.3,0,2,.08a3.78,3.78,0,0,0,1.79-.26A2.75,2.75,0,0,0,88,69.84a8.37,8.37,0,0,0,.52-3.45c0-.07,0-.22,0-.44s0-.38,0-.45a12,12,0,0,0-2.42.55c-.78.26-1.56.55-2.35.84s-1.57.57-2.34.79A8.24,8.24,0,0,1,79,68h-.37a2.39,2.39,0,0,1-.53-.06.86.86,0,0,1-.44-.21.5.5,0,0,1-.19-.42,1.75,1.75,0,0,1,.08-.42,4.25,4.25,0,0,1,.19-.53l.21-.52a1.09,1.09,0,0,1,.21-.37l1.68-.37,2.56-.55c.89-.2,1.74-.37,2.55-.53s1.39-.29,1.74-.4l.37-.13.55-.18.53-.19a1.88,1.88,0,0,0,.34-.13,3.41,3.41,0,0,0,.4-.31c.15-.14.23-.25.23-.32l1.21-9.74s.07-.09.22-.16c.31,0,.55.19.71.58a2.77,2.77,0,0,1,.23.79v8.48c.39,0,.94,0,1.66-.11L95.42,62c.82-.09,1.68-.21,2.56-.35l2.37-.39c.7-.12,1.29-.25,1.76-.37s.71-.24.71-.34V51.86l.32,0a6,6,0,0,1,.73.05,2.35,2.35,0,0,1,.72.24.54.54,0,0,1,.34.45v7.9c.31,0,.88,0,1.71-.08s1.69-.12,2.58-.19l2.55-.18c.81-.05,1.38-.08,1.69-.08h.74a3.24,3.24,0,0,1,1.32.29,2.5,2.5,0,0,1,1,.92,5.62,5.62,0,0,1-1.66,1.42,4.43,4.43,0,0,1-2.08.43,3.2,3.2,0,0,1-.92-.11,6.42,6.42,0,0,1-.66-.24c-.21-.08-.44-.16-.69-.23a3.74,3.74,0,0,0-1-.11l-1,0c-.51,0-1,0-1.58.08a7,7,0,0,0-1.43.21c-.4.1-.6.21-.6.31v5c.17,0,.53,0,1.08-.08l1.87-.19c.7-.07,1.42-.11,2.16-.13s1.41,0,2,0a4.78,4.78,0,0,1,1.53.29c.41.16.61.38.61.66a1.31,1.31,0,0,1-.16.58.63.63,0,0,1-.53.36c-.17,0-.68.11-1.52.21s-1.78.21-2.8.29l-2.79.27a7.71,7.71,0,0,1-1.47.08c0,.35-.08,1-.13,1.92s-.12,1.91-.19,3-.13,2-.18,2.92-.1,1.57-.13,2,0,.63,0,1.06a5.36,5.36,0,0,1-.08,1.21,1.75,1.75,0,0,1-.5,1,1.69,1.69,0,0,1-1.24.4,3.33,3.33,0,0,1-1-1.35,3.85,3.85,0,0,1-.24-1.58,5.32,5.32,0,0,1,.37-1.6,7.18,7.18,0,0,1,.84-1.53c0-.28,0-.77,0-1.48s0-1.43-.08-2.18-.06-1.48-.08-2.16,0-1.17,0-1.45a.54.54,0,0,1-.21,0,.2.2,0,0,0-.21,0c-.49.07-1.23.19-2.24.37s-2,.36-3,.55-2,.38-2.85.55l-1.6.32a3.87,3.87,0,0,0-2.66,1.74,8.54,8.54,0,0,0-1.19,3.13A20.36,20.36,0,0,0,88,80.64c0,1.21,0,2.26-.11,3.14a3.54,3.54,0,0,1-1,.58,3.24,3.24,0,0,1-1,.15,38.43,38.43,0,0,1,.34-5.21A37.81,37.81,0,0,0,86.54,74.19Zm4.9-9.38a1.71,1.71,0,0,0-.79,1,9.48,9.48,0,0,0-.39,1.61,11.13,11.13,0,0,0-.13,1.71v1.32a10.26,10.26,0,0,0,1.34-.18l2.4-.43c.91-.15,1.87-.33,2.89-.52s2-.38,2.82-.56,1.56-.34,2.11-.5.81-.27.81-.34V63.44a37.9,37.9,0,0,0-5.6.43Q94,64.29,91.44,64.81Z"/>
        <path id="A_end" class="cls-2"
              d="M60.83,48s3.7,12.49,6.45,18.8,8.24,21,12.49,29.11a51,51,0,0,0,3.85,6.59,1.18,1.18,0,0,0,1.92,0,43.58,43.58,0,0,1,4.8-4.12c1.3-1,2.64-1.85,3.57-2.47.41-.28,1-.55,1.1-1a1.09,1.09,0,0,0-.69-1.24c-.39-.13-1.34.63-1.92.82a4.4,4.4,0,0,1-4.12-.82,22.43,22.43,0,0,1-5.21-6.86c-4.76-9.4-10.94-25.36-12.36-29.24C68.65,52,64.53,38.93,64.53,38.93Z"/>
        <polygon id="A-left"
                 points="28.71 125 69.2 15.32 67.28 10.24 28.71 125 66.46 8.18 63.99 2 28.71 125 71.81 21.77 70.03 17.1 28.71 125"/>
        <path id="CURVE" class="cls-3"
              d="M12.71,86.78a55.08,55.08,0,0,0,5.7.57,40.55,40.55,0,0,0,11.33-.84c1.92-.48,3.8-.88,5.78-1.35s4.08-1,6.43-1.81C45.9,82,49.84,80.48,52.8,79.27s4.94-2.1,4.94-2.1c-1.15,1.09-2.12,1.92-1.92,4.12a4.19,4.19,0,0,0,2.06,3c2.1,1.41,6.46,1.37,10,.41a20.44,20.44,0,0,0,4.39-1.78s7.14-3.67,9.25-4.57A29.25,29.25,0,0,1,89,76.21a40.68,40.68,0,0,1,11.77.16,28.14,28.14,0,0,1,14.45,6.84,32,32,0,0,0-5.15-2.69,23.25,23.25,0,0,0-11.32-2,80,80,0,0,0-8.45,1.2,32.76,32.76,0,0,0-6.79,2.64,52.86,52.86,0,0,0-7.38,4.34c-2,1.36-3.47,2.52-4.7,3.21S69.13,91.26,68,91.79a18.72,18.72,0,0,1-4,1.26,12.41,12.41,0,0,1-3.5,0c-10-1.45-9.48-7.55-9.48-8a66.75,66.75,0,0,1-6.58,2.52c-2.27.72-5.19,1.58-8.52,2.42a38.83,38.83,0,0,1-10.55.81,30.33,30.33,0,0,1-7.57-1.09,20.31,20.31,0,0,1-3.3-1.8C13.48,87.34,12.71,86.78,12.71,86.78Z"/>
    </g>
</svg>